<?xml version="1.0" encoding="UTF-8"?>
<!DOCTYPE svg PUBLIC "-//W3C//DTD SVG 1.1//EN" "http://www.w3.org/Graphics/SVG/1.1/DTD/svg11.dtd">
<!-- Creator: CorelDRAW -->
<svg xmlns="http://www.w3.org/2000/svg" xml:space="preserve" width="5.26867in" height="7.03668in" version="1.1" style="shape-rendering:geometricPrecision; text-rendering:geometricPrecision; image-rendering:optimizeQuality; fill-rule:evenodd; clip-rule:evenodd"
viewBox="0 0 444.75 594"
 xmlns:xlink="http://www.w3.org/1999/xlink"
 xmlns:xodm="http://www.corel.com/coreldraw/odm/2003">
 <defs>
  <style type="text/css">
   <![CDATA[
    .fil1 {fill:white}
    .fil0 {fill:white;fill-rule:nonzero}
   ]]>
  </style>
 </defs>
 <g id="Layer_x0020_1">
  <metadata id="CorelCorpID_0Corel-Layer"/>
  <path class="fil0" d="M85.95 201.2l204.73 0c32.93,0 58.51,2.74 77.04,8.13 18.53,5.48 33.74,13.6 45.72,24.56 10.07,9.04 17.72,20.27 23.16,33.6 5.44,13.24 8.16,26.93 8.16,41.09 0,21 -6.04,40.54 -18.23,58.44 -12.08,17.99 -29.1,32.32 -51.06,43.19 -21.85,10.77 -46.93,16.16 -75.12,16.16 -22.15,0 -42.4,-1.64 -60.42,-4.93l0 -2.74c4.13,0.37 10.37,0.55 18.83,0.55 22.05,0 42.5,-3.47 61.33,-10.32 18.83,-6.85 33.94,-17.53 45.32,-32.05 11.48,-14.52 17.12,-32.78 17.12,-54.69 0,-25.47 -8.76,-49.49 -26.28,-71.95 -17.52,-22.46 -43.4,-33.69 -77.64,-33.69 -16.52,0 -31.22,1.46 -44.01,4.29 -1.31,7.12 -2.82,24.84 -4.43,53.23 -1.61,28.3 -2.32,48.21 -2.32,59.62l0 127.64c0,5.3 0.4,17.44 1.31,36.25 0.91,18.81 1.81,35.06 2.82,48.85 1.01,13.7 2.42,25.2 4.43,34.42l133.02 9.95 -3.22 3.2 -365.16 -5.38 1.21 -3.74 156.31 -4.02c2.22,-14.97 3.83,-30.86 5.04,-47.57 1.21,-16.8 2.22,-36.98 3.12,-60.63 0.81,-23.65 1.31,-41.27 1.31,-52.87l0 -64.19c0,-22.64 -0.81,-48.03 -2.42,-76.15 -1.51,-28.12 -3.52,-49.94 -5.84,-65.65l-73.21 -9.4 -0.6 -3.2zm90.03 10.41l0 371.43 20.54 0 0 -371.43 -20.54 0zm118.33 -3.83l-10.67 0 0 2.65c22.26,1.1 41.69,6.85 58.31,17.26 16.62,10.41 29.2,23.92 37.66,40.54 8.46,16.53 12.69,34.42 12.69,53.51 0,21.73 -5.14,39.72 -15.31,53.96 -10.27,14.24 -22.46,24.65 -36.66,31.04 -14.2,6.39 -28.3,10.23 -42.19,11.5l0 3.2 5.24 0c11.08,0 25.08,-2.74 42.09,-8.13 17.02,-5.48 32.63,-15.98 46.73,-31.41 14.2,-15.52 21.25,-37.07 21.25,-64.46 0,-16.98 -3.83,-33.87 -11.48,-50.86 -7.65,-16.89 -20.54,-30.95 -38.57,-42.09 -17.93,-11.14 -40.99,-16.71 -69.08,-16.71z"/>
  <path class="fil0" d="M40.88 494.81l27.89 67.63 3.62 0 -29.75 -72.2 -1.76 4.57zm-0.9 4.57c-0.95,1.91 -2.24,4.74 -3.84,8.43 -1.6,3.7 -3.05,7.17 -4.33,10.4 -1.3,3.21 -2.64,6.65 -4.04,10.31 -1.4,3.64 -2.33,6.05 -2.81,7.21 2.13,0.3 4.59,0.48 7.4,0.59 2.83,0.11 5.51,0.17 8.06,0.17 6.28,0 11.42,-0.26 15.44,-0.76 -1.36,-4.1 -3.67,-9.94 -6.94,-17.49 -3.27,-7.56 -6.24,-13.85 -8.94,-18.85zm5.73 -15.27l23.3 56.19c3.01,7.32 6.52,14.6 10.54,21.8l8.92 1.89 0 0.56 -37.98 0 0 -0.56 14.62 -1.89c-0.53,-3.58 -1.52,-7.48 -2.99,-11.72 -1.45,-4.22 -3.05,-7.89 -4.81,-11.01l-33.73 0c-1.45,3.66 -2.61,6.67 -3.49,9.03 -0.88,2.36 -1.71,4.81 -2.52,7.35 -0.81,2.53 -1.34,4.66 -1.6,6.35l14.1 1.89 0 0.56 -30.08 0 0 -0.56 9.92 -1.89c2.41,-4.2 4.59,-8.84 6.59,-13.91l24.96 -64.09 4.24 0zm43.91 1.34l0 -0.56 27.14 0c1.8,2.47 4.11,5.44 6.98,8.91 2.85,3.49 5.38,6.48 7.6,8.99l24.11 27.09c3.18,3.51 5.67,6.24 7.44,8.15 1.78,1.93 4.08,4.27 6.92,7.02 0.2,-2.51 0.35,-4.85 0.42,-7.02 0.07,-2.17 0.11,-4.22 0.11,-6.15l0 -23.49c0,-8.45 -0.4,-15.43 -1.23,-20.95l-1.72 -1.88 0 -0.56 20.69 -0.13 0 0.56 -13.07 2.12c-0.68,5.09 -1.03,11.57 -1.03,19.48l0 59.63 -0.55 0c-5.49,-7.04 -10.93,-13.63 -16.32,-19.76l-32.91 -37.1c-4.88,-5.27 -9.05,-9.45 -12.49,-12.57 -0.5,4.92 -0.75,9.53 -0.75,13.82l0 34.45c0,4.61 0.37,10.1 1.08,16.49l13.66 2.02 0 0.54 -32.69 0 0 -0.54 13.24 -1.91c0.42,-2.6 0.73,-6.33 0.9,-11.14 0.18,-4.83 0.28,-9.14 0.28,-12.91l0 -26.65c0,-3.16 -0.05,-6.3 -0.17,-9.4 -0.11,-3.1 -0.29,-6.17 -0.59,-9.21l-7.16 -5.35 -9.9 -2.01zm16.09 1.45l64.97 73.09 0 -5.13 -60.47 -67.97 -4.5 0zm82.11 -1.39l0 -0.56 28.75 -0.06c1.8,2.47 4.11,5.44 6.98,8.91 2.85,3.49 5.38,6.48 7.6,8.99l24.11 27.09c3.18,3.51 5.67,6.24 7.44,8.15 1.78,1.93 4.08,4.27 6.92,7.02 0.2,-2.51 0.35,-4.85 0.42,-7.02 0.07,-2.17 0.11,-4.22 0.11,-6.15l0 -23.49c0,-8.45 -0.4,-15.43 -1.23,-20.95l-13.07 -2.01 0 -0.56 32.04 0 0 0.56 -13.07 2.12c-0.68,5.09 -1.03,11.57 -1.03,19.48l0 59.63 -0.55 0c-5.49,-7.04 -10.93,-13.63 -16.32,-19.76l-32.91 -37.1c-4.88,-5.27 -9.05,-9.45 -12.49,-12.57 -0.5,4.92 -0.75,9.53 -0.75,13.82l0 34.45c0,4.61 0.37,10.1 1.08,16.49l13.66 2.02 0 0.54 -23.32 0 0 -0.54 3.87 -1.91c0.42,-2.6 0.73,-6.33 0.9,-11.14 0.18,-4.83 0.28,-9.14 0.28,-12.91l0 -26.65c0,-3.16 -0.05,-6.3 -0.17,-9.4 -0.11,-3.1 -0.29,-6.17 -0.59,-9.21l-7.16 -5.35 -11.51 -1.95zm17.7 1.39l64.97 73.09 0 -5.13 -60.47 -67.97 -4.5 0zm123.57 75.55l3.64 0 0 -34.02 -25.58 -41.52 -3.93 0 25.87 41.91 0 33.63zm-29 -75.12l-10.87 -1.88 0 -0.56 41.85 0 0 0.56 -16.09 1.88c2.41,5.39 5.78,11.64 10.15,18.79 4.39,7.13 8.28,12.94 11.73,17.4 3.76,-4.2 8.21,-10.1 13.33,-17.68 5.12,-7.58 8.94,-13.76 11.46,-18.52l-15.76 -1.88 0 -0.56 31.31 0 0 0.67 -9.25 1.76c-2.11,2.54 -4.17,5.16 -6.13,7.84 -1.97,2.69 -4.52,6.28 -7.64,10.79 -3.12,4.49 -5.58,8.1 -7.36,10.81 -1.8,2.69 -4.5,6.82 -8.08,12.37 -0.28,4.48 -0.42,9.43 -0.42,14.91 0,7.48 0.55,13.5 1.65,18.07l13.35 1.89 0 0.56 -40.75 0 0 -0.56 13.07 -1.89c0.57,-2.28 1.03,-5.4 1.36,-9.36 0.35,-3.96 0.51,-7.67 0.51,-11.14 0,-2.62 -0.11,-6.7 -0.31,-12.26 -2.09,-3.84 -4.74,-8.41 -7.95,-13.69 -3.2,-5.27 -6.52,-10.46 -9.92,-15.51 -3.42,-5.07 -6.5,-9.34 -9.25,-12.83z"/>
  <g id="_1463184014448">
   <path class="fil1" d="M187.79 128.84l-1.44 51.14c-0.68,-0.01 -1.34,0.17 -1.57,-0.43l-0.79 -0.02c-0.22,0.51 0.01,0.28 -0.59,0.39 -0.11,0.02 -0.82,-0.02 -0.99,-0.02l0.66 -51.16c-0.18,-0.46 -0.23,-0.28 -0.72,-0.47l-5.16 -2.19c-0.03,-0.02 -0.08,-0.06 -0.12,-0.08l-4.74 -4.71 -2.19 -5.81c-0.34,-1.07 -0.12,-2.91 -0.11,-4.14 0.01,-0.74 0.43,-3.31 0.87,-4.11l0.32 -0.67c0.08,-0.23 0.07,-0.25 0.14,-0.46l1.25 -2.11c0.02,-0.04 0.05,-0.09 0.08,-0.12l0.81 -1.17c0.02,-0.04 0.05,-0.09 0.08,-0.12l6.18 -4.42c0.04,-0.02 0.09,-0.04 0.13,-0.06l4.36 -1.08c1,-0.31 2.79,-0.23 3.8,0.14l2.25 0.54c0.32,0.1 0.21,0.04 0.5,0.1 0.06,0.01 0.11,0.01 0.17,0.03 0.97,0.2 1.43,0.62 2.29,1.08l2.46 1.5c0.88,0.59 1.78,1.66 2.45,2.47l0.76 1.2c0.03,0.05 0.14,0.18 0.17,0.22 0.02,0.04 0.05,0.08 0.08,0.12l0.14 0.25c0.02,0.04 0.04,0.09 0.07,0.13l1.75 3.72c0.1,0.44 0.03,0.49 0.06,0.9 0.04,0.45 0.37,1.48 0.34,2.57 -0.08,2.51 -0.04,3.44 -0.6,5.41l-2.84 5.48 -2.48 2.44c-0.04,0.02 -0.09,0.05 -0.13,0.07l-3.58 2.1c-0.9,0.39 -1.84,0.48 -2.77,0.73 -0.06,0.02 -0.23,0.08 -0.29,0.1 -0.68,0.21 -0.79,-0.05 -1.04,0.53zm-0.28 51.95l0.02 -1.18c0.44,-0.17 0.28,-0.25 0.56,-0.63l2.02 -3.52c0.08,-0.16 0.05,-0.1 0.14,-0.26 0.39,-0.73 -0.41,0.78 0.14,-0.26l0.55 -1.04c0.11,-0.22 0.02,-0.04 0.14,-0.26l1.02 -1.95c0.02,-0.04 0.05,-0.09 0.07,-0.13 0.02,-0.04 0.05,-0.09 0.07,-0.13 0.02,-0.04 0.05,-0.09 0.07,-0.13l0.4 -0.78c0.55,-1.06 0.75,-1.07 0.81,-1.16l5.87 -10.76c0.08,-0.16 0.07,-0.13 0.14,-0.26l0.48 -0.91c0.02,-0.04 0.05,-0.09 0.07,-0.13l3.34 -5.97c0.14,-0.27 -0,0 0.14,-0.26l5.73 -10.51c0.02,-0.04 0.05,-0.09 0.07,-0.13l0.14 -0.26c0.02,-0.04 0.05,-0.09 0.07,-0.13 0.03,-0.05 0.11,-0.21 0.14,-0.26 0.02,-0.04 0.05,-0.09 0.07,-0.13l0.14 -0.26c0.02,-0.04 0.05,-0.09 0.07,-0.13 0.03,-0.05 0.11,-0.21 0.14,-0.26 0.02,-0.04 0.05,-0.09 0.07,-0.13l5.32 -9.73c0,0 0.14,-0.26 0.14,-0.26 0.04,-0.07 0.07,-0.14 0.14,-0.26l0.2 -0.39c0.02,-0.04 0.05,-0.09 0.07,-0.13l0.48 -0.91c0.02,-0.04 0.05,-0.09 0.07,-0.13 0.8,-1.54 0.88,-1.3 1.3,-2.06l2.25 -4.29c0.02,-0.04 0.05,-0.09 0.07,-0.13 0.03,-0.05 0.11,-0.21 0.14,-0.26l2.16 -3.78c0.02,-0.03 0.06,-0.08 0.08,-0.11l0.96 -1.81c0.02,-0.04 0.05,-0.09 0.07,-0.13l2.04 -3.9c0.02,-0.04 0.04,-0.09 0.07,-0.13 0.02,-0.04 0.04,-0.09 0.06,-0.13 0.22,-0.42 0.18,-0.6 0.62,-0.76l0.01 -0.39c-0.7,-0.3 -0.5,-0.92 -1.26,-2.64l-2.18 -6.2c-0.02,-0.05 -0.03,-0.1 -0.05,-0.15l-2.02 -5.59c-0.08,-0.25 -0.09,-0.36 -0.17,-0.61l-0.8 -2.12c-0.01,-0.05 -0.03,-0.1 -0.05,-0.15 -0.01,-0.05 -0.03,-0.1 -0.05,-0.15 -0.01,-0.05 -0.03,-0.1 -0.05,-0.15 -0.01,-0.05 -0.03,-0.1 -0.04,-0.15l-1.11 -3.57c-0.1,-0.34 -0.05,-0.28 -0.17,-0.61 -0.02,-0.05 -0.04,-0.1 -0.05,-0.14 -0.02,-0.04 -0.04,-0.09 -0.06,-0.14l-0.92 -2.59c-0.01,-0.05 -0.03,-0.1 -0.05,-0.15l-0.15 -0.43c-0.01,-0.05 -0.03,-0.1 -0.04,-0.15l-1.42 -5c-0.02,-0.05 -0.03,-0.1 -0.05,-0.15 -0.02,-0.05 -0.03,-0.1 -0.05,-0.15l-0.53 -2.19c-0.01,-0.05 -0.03,-0.1 -0.05,-0.15l-0.51 -1.63c-0.01,-0.06 -0.02,-0.11 -0.03,-0.17 -0.04,-0.21 -0.02,-0.29 -0.06,-0.52l-0.28 -0.89c-0.07,-0.23 -0.13,-0.44 -0.18,-0.6 -0.01,-0.05 -0.04,-0.1 -0.05,-0.14 -0.01,-0.05 -0.04,-0.1 -0.05,-0.15l-0.36 -1.59c-0.01,-0.05 -0.03,-0.1 -0.05,-0.15 -0.01,-0.05 -0.02,-0.1 -0.04,-0.16l-0.69 -3.01c-0.01,-0.05 -0.02,-0.1 -0.04,-0.16l-0.28 -1.28c-0.01,-0.05 -0.03,-0.1 -0.05,-0.15 -0.01,-0.05 -0.03,-0.1 -0.04,-0.16l-0.99 -5.22c-0.01,-0.05 -0.04,-0.09 -0.05,-0.14 -0.19,-0.75 -0,-1.37 -0.24,-2.09 -0.01,-0.05 -0.04,-0.09 -0.06,-0.14 -0.22,-0.71 -0.01,-1.37 -0.23,-2.09 -0.36,-1.17 0.01,-2.49 -0.32,-3.55l-0.21 -2.31c0.05,-1.72 -0.08,-3.61 0.1,-5.32l0.45 -2.35c-2.75,-0.06 -10.63,0.09 -12.78,-0.27 -1.3,-0.22 0.11,-0.18 -1.19,-0.4 -1.12,-0.19 -3.75,-0.29 -4.78,0.03l-29.65 -0.35 0.37 2.15c0.12,1.01 0.37,1.07 0.33,2.39 -0.04,1.14 0.06,4.4 -0.15,5.28 -0.27,1.14 -0.06,-0.28 -0.33,0.86 -0.22,0.92 0.02,2.26 -0.3,3.1l-0.25 1.75c-0.21,1.4 -0.11,-0.1 -0.36,1.03l-1.2 5.98c-0.02,0.05 -0.04,0.1 -0.05,0.15l-0.37 1.42c-0.02,0.05 -0.04,0.1 -0.05,0.15 -0.14,0.48 -0.11,0.67 -0.26,1.14l-1.61 5.96c-0.01,0.05 -0.03,0.1 -0.04,0.16 -0.01,0.05 -0.04,0.1 -0.05,0.15l-1.26 4.31c-0.02,0.05 -0.04,0.1 -0.06,0.14l-1.21 3.76c-0.02,0.05 -0.04,0.1 -0.06,0.14l-0.89 2.89c-0.02,0.05 -0.04,0.1 -0.06,0.14l-0.84 2.34c-0.08,0.22 -0.12,0.37 -0.2,0.6l-2.25 6.29c-0.02,0.05 -0.04,0.1 -0.05,0.14l-1.51 4.26c-0.02,0.05 -0.04,0.1 -0.06,0.14l-1.18 2.99c-0.17,0.35 -0.02,-0 -0.18,0.42 -0.08,0.22 -0.07,0.25 -0.14,0.46l-0.21 0.58c-0.02,0.05 -0.04,0.1 -0.05,0.14l-0.79 2.19c-0.02,0.04 -0.05,0.09 -0.07,0.13l-0.54 1.25c-0.02,0.05 -0.03,0.1 -0.05,0.15 -0.2,0.57 -0.35,1.35 -0.72,1.86 -0.3,0.4 0.12,0.18 -0.41,0.38l-0.02 0.79c0.53,0.23 0.11,-0.03 0.39,0.4l0.25 0.53c0.07,0.16 0.16,0.38 0.26,0.53l2.77 5.44c0.02,0.04 0.04,0.09 0.06,0.13 0,0 0.12,0.26 0.13,0.27 0.02,0.04 0.04,0.09 0.06,0.13l0.38 0.8c0.02,0.04 0.04,0.09 0.06,0.13l2.34 4.51c0.27,0.56 -0.24,-0.5 0.13,0.26l1.07 2.25c0.13,0.27 -0,-0 0.12,0.27l0.95 1.6c0.02,0.04 0.05,0.09 0.07,0.12 0.02,0.04 0.05,0.09 0.07,0.13l2 4.25c0,0 0.13,0.26 0.13,0.27l1.77 3.31c0.02,0.04 0.04,0.09 0.06,0.13 0.02,0.04 0.04,0.09 0.06,0.13l1.13 2.39c0.16,0.35 -0.1,-0.2 0.13,0.26l2.4 4.64c0.02,0.04 0.04,0.09 0.06,0.13 0.02,0.04 0.04,0.09 0.06,0.13l0.94 1.99c0.02,0.04 0.04,0.09 0.06,0.13l0.13 0.27c0.02,0.04 0.04,0.09 0.06,0.13 0.03,0.05 0.1,0.21 0.13,0.27 0.02,0.04 0.04,0.09 0.06,0.13l0.13 0.27c0.02,0.04 0.04,0.09 0.06,0.13 0.03,0.05 0.1,0.21 0.13,0.27l3.47 6.89c0.02,0.04 0.04,0.09 0.06,0.13l0.25 0.53c0.02,0.04 0.04,0.09 0.06,0.13l0.31 0.66c0.02,0.04 0.04,0.09 0.06,0.13l2.4 4.64c0.02,0.04 0.04,0.09 0.06,0.13 0.03,0.05 0.1,0.21 0.13,0.27l1.63 3.45c0.02,0.04 0.04,0.09 0.06,0.13l0.83 1.32c0.02,0.04 0.05,0.09 0.07,0.13l1.06 2.26c0.09,0.18 0.04,0.08 0.13,0.26 0.02,0.04 0.04,0.09 0.06,0.13l0.31 0.66c0.02,0.04 0.04,0.09 0.06,0.13l0.38 0.79c0,0 0.13,0.26 0.13,0.27 0.07,0.15 0.18,0.38 0.25,0.53l2.46 4.77c0.02,0.04 0.04,0.09 0.06,0.13l2.02 4.24c0.13,0.2 0.07,0.09 0.25,0.34 0.37,0.53 0.22,0.76 0.77,1l-0.55 1.03c-0.05,0.02 -0.22,0.1 -0.27,0.12 -0.63,0.32 -1.01,0.78 -1.34,1.42l-0.83 1.55c-0.02,0.04 -0.05,0.09 -0.07,0.13 -0.09,0.2 -0.03,-0.13 -0.16,0.44 -0.39,1.76 -0.09,3.37 0.83,4.74l0.97 1.38c0.83,0.84 2.04,1.24 3.12,1.64 0.61,0.23 1.61,0.29 2.24,0.1 0.05,-0.01 0.1,-0.04 0.14,-0.05 0.05,-0.02 0.1,-0.04 0.14,-0.05 0.05,-0.02 0.1,-0.04 0.14,-0.05l4.03 -2.63c0.03,-0.05 0.11,-0.2 0.14,-0.25l0.29 -0.7c0.36,-1.04 0.48,-1.48 0.5,-2.91 0.01,-0.62 0.04,-0.72 -0.12,-1.24l-0.11 -0.28c-0.01,-0.05 -0.03,-0.1 -0.05,-0.15 -0.08,-0.27 -0.08,-0.37 -0.17,-0.61l-0.68 -1.08c-0.27,-0.48 -0.3,-0.68 -0.9,-1.07l-1.04 -0.54z"/>
   <polygon class="fil1" points="213.24,1.03 162.88,0 162.51,18.1 212.87,19.13 "/>
   <polygon class="fil1" points="217.11,23.55 158.09,22.34 157.81,36.11 216.83,37.32 "/>
  </g>
 </g>
</svg>
