<?xml version="1.0" encoding="UTF-8"?>
<!DOCTYPE svg PUBLIC "-//W3C//DTD SVG 1.1//EN" "http://www.w3.org/Graphics/SVG/1.1/DTD/svg11.dtd">
<!-- Creator: CorelDRAW 2021 (64-Bit) -->
<svg xmlns="http://www.w3.org/2000/svg" xml:space="preserve" width="4.00394in" height="3.02089in" version="1.1" style="shape-rendering:geometricPrecision; text-rendering:geometricPrecision; image-rendering:optimizeQuality; fill-rule:evenodd; clip-rule:evenodd"
viewBox="0 0 29.61 22.34"
 xmlns:xlink="http://www.w3.org/1999/xlink"
 xmlns:xodm="http://www.corel.com/coreldraw/odm/2003">
 <defs>
  <style type="text/css">
   <![CDATA[
    .fil1 {fill:#34A853}
    .fil2 {fill:#4185F4}
    .fil3 {fill:#C5211F}
    .fil0 {fill:#E94135}
    .fil4 {fill:#FABD03}
    .fil5 {fill:#FCFEFD}
    .fil6 {fill:#FEFDFA}
   ]]>
  </style>
 </defs>
 <g id="Layer_x0020_1">
  <metadata id="CorelCorpID_0Corel-Layer"/>
  <g id="_2698952175696">
   <path class="fil0" d="M6.74 10.76l0 0.02c0.11,0.05 0.4,0.28 0.52,0.37l5.54 4.15c0.34,0.26 0.67,0.51 1.01,0.76 0.18,0.13 0.34,0.25 0.51,0.38 0.13,0.1 0.36,0.29 0.49,0.36l1.96 -1.46c1.29,-0.99 2.63,-1.95 3.92,-2.94l1.96 -1.45c0.03,-0.04 0,-0.01 0.05,-0.06 0.04,-0.04 0.01,-0.01 0.06,-0.04 0.04,-0.03 0.08,-0.06 0.12,-0.07l0.01 -0.02 -0.01 -8.73 -1.01 0.76c-0.55,0.42 -6.94,5.23 -7.05,5.27 -0.16,-0.07 -7.79,-5.89 -8.09,-6.03 0.07,0.27 0.02,1.79 0.02,2.19l0 4.36c0,0.71 0.03,1.48 -0,2.18z"/>
   <path class="fil1" d="M22.88 10.76l-0.01 0.02 0 11.4c0.24,0.03 2.26,0.01 2.68,0.01 0.87,0 1.8,0.07 2.63,-0.08 0.01,-0.01 0.47,-0.2 0.48,-0.21 0.02,-0.03 0.01,-0.02 0.04,-0.04 0.01,-0.01 0.03,-0.03 0.04,-0.04 0.26,-0.2 0.24,-0.19 0.45,-0.44 0.02,-0.03 0.02,-0.02 0.04,-0.04 0,-0 0.01,-0 0.02,-0.01 0,-0.01 0.01,-0.01 0.02,-0.01 0.02,-0.08 0.12,-0.23 0.17,-0.34 0.2,-0.46 0.17,-0.81 0.17,-1.31l0 -9.96c0,-1.32 0.02,-2.66 -0,-3.98 -0.14,0.07 -0.31,0.22 -0.43,0.32l-1.25 0.94c-1.06,0.82 -2.34,1.71 -3.35,2.51l-1.68 1.25z"/>
   <path class="fil2" d="M0.28 21.21c0.07,0.05 0.11,0.14 0.17,0.21l0.56 0.5c0,0 0.01,0.01 0.01,0.01 0,0 0.01,0.01 0.01,0.01 0.25,0.02 0.22,0.24 1.25,0.24 0.6,-0 4.19,0.03 4.46,-0.01l0 -11.4 -0 -0.02c-1.06,-0.76 -2.3,-1.72 -3.35,-2.51 -0.29,-0.22 -0.55,-0.42 -0.85,-0.63l-1.68 -1.26c-0.14,-0.11 -0.28,-0.21 -0.42,-0.32 -0.12,-0.09 -0.3,-0.24 -0.42,-0.3 -0.03,0.64 -0,1.34 -0,1.98l0 11.81c0,0.52 -0.05,0.87 0.12,1.35 0.06,0.16 0.12,0.22 0.14,0.33z"/>
   <path class="fil3" d="M1.45 0.44c-0.07,0.1 -0.2,0.16 -0.29,0.23 -0.45,0.35 -0.63,0.72 -0.72,0.79 -0.01,0.09 -0.14,0.29 -0.18,0.4 -0.06,0.14 -0.11,0.29 -0.15,0.45 -0.13,0.56 -0.11,2.87 -0.08,3.43 0.12,0.06 0.3,0.21 0.42,0.3 0.14,0.11 0.28,0.2 0.42,0.32l1.68 1.26c0.29,0.22 0.55,0.42 0.85,0.63 1.05,0.79 2.29,1.75 3.35,2.51 0.03,-0.7 0,-1.47 0,-2.18l0 -4.36c0,-0.4 0.05,-1.92 -0.02,-2.19 -0.03,-0.08 -2.06,-1.56 -2.22,-1.65 -0.73,-0.39 -1.56,-0.5 -2.39,-0.23 -0.13,0.04 -0.24,0.08 -0.35,0.14 -0.11,0.05 -0.21,0.13 -0.31,0.15z"/>
   <path class="fil4" d="M22.87 2.03l0.01 8.73 1.68 -1.25c1.01,-0.81 2.29,-1.7 3.35,-2.51l1.25 -0.94c0.13,-0.09 0.29,-0.25 0.43,-0.32 0.01,-0.71 0,-1.43 0,-2.13 0,-0.55 0.03,-0.96 -0.14,-1.49 -0.04,-0.12 -0.13,-0.27 -0.13,-0.38 -0.06,-0.06 -0.08,-0.12 -0.12,-0.19 -0.19,-0.35 -0.56,-0.77 -0.91,-0.99 -0.07,-0.05 -0.13,-0.07 -0.18,-0.14 -0.11,-0.01 -0.22,-0.1 -0.34,-0.15 -0.36,-0.16 -0.76,-0.25 -1.17,-0.26 -0.92,-0.02 -1.47,0.32 -2.1,0.79l-1.65 1.24z"/>
   <path class="fil5" d="M22.65 10.96l0.07 0.04c-0.03,0.93 0,1.92 0,2.86l-0.01 8.47c0.07,0.02 0.1,0.01 0.16,0 0.33,-0.08 0.05,0 0.47,-0l4.66 -0.01 0.19 -0.21c-0.83,0.16 -1.76,0.08 -2.63,0.08 -0.42,0 -2.44,0.02 -2.68,-0.01l-0 -11.4c-0.04,0.02 -0.08,0.04 -0.12,0.07 -0.04,0.03 -0.02,0.01 -0.06,0.04 -0.05,0.05 -0.02,0.02 -0.05,0.06z"/>
   <path class="fil6" d="M28.13 0.41c0.05,0.07 0.11,0.1 0.18,0.14 0.34,0.22 0.71,0.64 0.91,0.99 0.04,0.07 0.05,0.13 0.12,0.19 0.07,-0.05 -0.02,0.01 0.04,-0.03 0,-0.05 -0,-0.05 -0,-0.07l0 -0.06c0,-0.01 0.01,-0.07 0.01,-0.12l-0.07 -0.01c-0.12,-0.03 -0.08,-0 -0.11,-0.06 -0.05,-0.01 -0.04,0.05 -0.03,-0.18 -0.19,-0.03 -0.04,0.01 -0.1,-0.05 0.01,-0 0.01,-0.01 0.02,-0.01l0.05 -0.04c0.06,-0.05 0.01,0.01 0.04,-0.04 -0.03,-0.01 0.02,-0 -0.04,-0l-0.18 -0.03c0.01,-0.07 0.04,-0.09 -0,-0.14 -0.07,-0.08 -0.13,-0.04 -0.14,-0.07 -0,-0.01 -0.01,-0 -0.02,-0.01 0.02,-0.13 -0.02,-0.05 0.02,-0.18l-0.14 0.08c-0,-0.01 -0.01,0.01 -0.02,0.01 -0.01,-0.12 0,-0.02 -0.05,-0.09 -0.08,-0.09 -0.03,-0.07 -0.08,-0.12 -0.1,-0.12 -0.1,0.04 -0.37,-0.14 -0.06,0.02 -0.06,-0.04 -0.04,0.03z"/>
   <path class="fil5" d="M0.43 1.46c0.1,-0.07 0.28,-0.44 0.72,-0.79 0.1,-0.08 0.23,-0.13 0.29,-0.23l-0.43 0.03c-0.01,0.03 0.06,0.27 -0.21,0.17l0.01 0.18c-0.03,0.03 -0.17,0.08 -0.21,0.06 0,0.01 0.01,0.03 0.02,0.04l0.01 0.04c0,0.01 -0,0.09 -0,0.1 -0.09,-0 -0.16,-0.03 -0.19,0 -0.08,0.08 -0.01,0.05 -0.01,0.06 0,0.15 -0.02,0.21 -0.02,0.27 0,0.05 -0.01,0.01 0.01,0.06z"/>
   <path class="fil5" d="M1.04 21.95c-0,-0.01 -0.01,-0.01 -0.01,-0.01 -0,-0 -0.01,-0.01 -0.01,-0.01l-0.56 -0.5c-0.05,-0.07 -0.09,-0.16 -0.17,-0.21 -0.06,0.07 -0.09,-0 -0.05,0.34 0.11,0.01 0.08,0 0.19,-0.01 0.02,0.06 -0.02,0.17 0.11,0.2 0.08,0.02 0,-0.02 0.09,0.01 0.04,0.16 0.03,0.09 0,0.16 -0,0.01 -0.02,0.04 -0.03,0.05 0.13,-0.06 0.21,-0.04 0.24,-0.04l0.21 0.02z"/>
   <path class="fil5" d="M28.66 21.91c0.05,0.08 0.07,0.04 0.2,0.03 0.01,-0 0.01,-0 0.02,-0 0.21,-0.02 0.07,-0.09 0.13,-0.18 0,-0 0.01,-0.01 0.01,-0.01l0.19 0c-0.01,-0.17 -0.1,-0.04 0.01,-0.21 0.07,-0.11 0.02,-0.06 0.15,-0.07l-0.1 -0.14c-0.01,0 -0.01,0 -0.02,0.01 -0,0.01 -0.01,0.01 -0.02,0.01 -0.02,0.02 -0.02,0.01 -0.04,0.04 -0.21,0.25 -0.2,0.23 -0.45,0.44 -0.01,0.01 -0.03,0.02 -0.04,0.04 -0.03,0.02 -0.02,0.02 -0.04,0.04z"/>
  </g>
 </g>
</svg>
