<?xml version="1.0" encoding="UTF-8"?>
<!DOCTYPE svg PUBLIC "-//W3C//DTD SVG 1.1//EN" "http://www.w3.org/Graphics/SVG/1.1/DTD/svg11.dtd">
<!-- Creator: CorelDRAW 2021 (64-Bit) -->
<svg xmlns="http://www.w3.org/2000/svg" xml:space="preserve" width="6.7963in" height="6.7963in" version="1.1" style="shape-rendering:geometricPrecision; text-rendering:geometricPrecision; image-rendering:optimizeQuality; fill-rule:evenodd; clip-rule:evenodd"
viewBox="0 0 82.25 82.25"
 xmlns:xlink="http://www.w3.org/1999/xlink"
 xmlns:xodm="http://www.corel.com/coreldraw/odm/2003">
 <defs>
  <style type="text/css">
   <![CDATA[
    .fil0 {fill:#006699;fill-rule:nonzero}
   ]]>
  </style>
 </defs>
 <g id="Layer_x0020_1">
  <metadata id="CorelCorpID_0Corel-Layer"/>
  <path class="fil0" d="M82.23 82.25l0 -0 0.02 0 0 -30.17c0,-14.76 -3.18,-26.13 -20.43,-26.13 -8.29,0 -13.86,4.55 -16.13,8.87l-0.24 0 0 -7.49 -16.36 0 0 54.91 17.03 0 0 -27.19c0,-7.16 1.36,-14.08 10.22,-14.08 8.74,0 8.87,8.17 8.87,14.54l0 26.74 17.02 -0z"/>
  <polygon class="fil0" points="1.36,27.34 18.41,27.34 18.41,82.25 1.36,82.25 "/>
  <path class="fil0" d="M9.88 0c-5.45,0 -9.88,4.42 -9.88,9.88 0,5.45 4.42,9.97 9.88,9.97 5.45,0 9.88,-4.52 9.88,-9.97 -0,-5.45 -4.43,-9.88 -9.88,-9.88z"/>
 </g>
</svg>
