<?xml version="1.0" encoding="UTF-8"?>
<!DOCTYPE svg PUBLIC "-//W3C//DTD SVG 1.1//EN" "http://www.w3.org/Graphics/SVG/1.1/DTD/svg11.dtd">
<!-- Creator: CorelDRAW -->
<svg xmlns="http://www.w3.org/2000/svg" xml:space="preserve" width="5.26867in" height="7.03668in" version="1.1" style="shape-rendering:geometricPrecision; text-rendering:geometricPrecision; image-rendering:optimizeQuality; fill-rule:evenodd; clip-rule:evenodd"
viewBox="0 0 267.27 356.96"
 xmlns:xlink="http://www.w3.org/1999/xlink"
 xmlns:xodm="http://www.corel.com/coreldraw/odm/2003">
 <defs>
  <style type="text/css">
   <![CDATA[
    .fil1 {fill:white}
    .fil0 {fill:white;fill-rule:nonzero}
   ]]>
  </style>
 </defs>
 <g id="Layer_x0020_1">
  <metadata id="CorelCorpID_0Corel-Layer"/>
  <g id="_1463535794160">
   <path class="fil0" d="M51.65 120.91l123.03 0c19.79,0 35.16,1.65 46.3,4.88 11.13,3.29 20.27,8.18 27.47,14.76 6.05,5.43 10.65,12.18 13.92,20.19 3.27,7.96 4.9,16.19 4.9,24.69 0,12.62 -3.63,24.36 -10.95,35.12 -7.26,10.81 -17.49,19.42 -30.68,25.95 -13.13,6.47 -28.2,9.71 -45.15,9.71 -13.31,0 -25.48,-0.99 -36.31,-2.96l0 -1.65c2.48,0.22 6.23,0.33 11.32,0.33 13.25,0 25.54,-2.08 36.85,-6.2 11.32,-4.12 20.39,-10.53 27.23,-19.26 6.9,-8.72 10.29,-19.7 10.29,-32.87 0,-15.31 -5.26,-29.74 -15.79,-43.24 -10.53,-13.5 -26.08,-20.25 -46.66,-20.25 -9.92,0 -18.76,0.88 -26.45,2.58 -0.79,4.28 -1.69,14.92 -2.66,31.99 -0.97,17.01 -1.39,28.97 -1.39,35.83l0 76.71c0,3.18 0.24,10.48 0.79,21.78 0.54,11.3 1.09,21.07 1.69,29.36 0.61,8.23 1.45,15.14 2.66,20.69l79.94 5.98 -1.94 1.92 -219.44 -3.23 0.73 -2.25 93.94 -2.42c1.33,-9 2.3,-18.55 3.03,-28.59 0.73,-10.1 1.33,-22.22 1.88,-36.43 0.48,-14.21 0.79,-24.8 0.79,-31.77l0 -38.57c0,-13.61 -0.48,-28.86 -1.45,-45.76 -0.91,-16.9 -2.12,-30.01 -3.51,-39.45l-44 -5.65 -0.36 -1.92zm54.1 6.25l0 223.21 12.35 0 0 -223.21 -12.35 0zm71.11 -2.3l-6.41 0 0 1.59c13.37,0.66 25.05,4.12 35.04,10.37 9.99,6.26 17.55,14.38 22.63,24.36 5.08,9.93 7.63,20.69 7.63,32.15 0,13.06 -3.09,23.87 -9.2,32.43 -6.17,8.56 -13.5,14.81 -22.03,18.66 -8.53,3.84 -17.01,6.15 -25.36,6.91l0 1.92 3.15 0c6.66,0 15.07,-1.65 25.3,-4.88 10.23,-3.29 19.61,-9.6 28.08,-18.88 8.53,-9.33 12.77,-22.28 12.77,-38.74 0,-10.21 -2.3,-20.36 -6.9,-30.56 -4.6,-10.15 -12.35,-18.6 -23.18,-25.29 -10.77,-6.69 -24.63,-10.04 -41.51,-10.04z"/>
   <path class="fil0" d="M24.56 297.35l16.76 40.64 2.17 0 -17.88 -43.39 -1.06 2.75zm-0.54 2.75c-0.57,1.15 -1.35,2.85 -2.31,5.07 -0.96,2.22 -1.83,4.31 -2.6,6.25 -0.78,1.93 -1.59,4 -2.43,6.19 -0.84,2.19 -1.4,3.64 -1.69,4.33 1.28,0.18 2.76,0.29 4.45,0.36 1.7,0.07 3.31,0.1 4.84,0.1 3.77,0 6.86,-0.16 9.28,-0.46 -0.82,-2.47 -2.21,-5.97 -4.17,-10.51 -1.96,-4.54 -3.75,-8.33 -5.37,-11.33zm3.44 -9.17l14 33.77c1.81,4.4 3.92,8.77 6.33,13.1l5.36 1.14 0 0.33 -22.82 0 0 -0.33 8.78 -1.14c-0.32,-2.15 -0.92,-4.5 -1.8,-7.04 -0.87,-2.53 -1.83,-4.74 -2.89,-6.62l-20.27 0c-0.87,2.2 -1.57,4.01 -2.1,5.42 -0.53,1.42 -1.03,2.89 -1.51,4.42 -0.49,1.52 -0.81,2.8 -0.96,3.82l8.48 1.14 0 0.33 -18.08 0 0 -0.33 5.96 -1.14c1.45,-2.52 2.76,-5.31 3.96,-8.36l15 -38.51 2.55 0zm26.39 0.8l0 -0.33 16.31 0c1.08,1.48 2.47,3.27 4.19,5.36 1.71,2.1 3.23,3.89 4.57,5.4l14.49 16.28c1.91,2.11 3.41,3.75 4.47,4.9 1.07,1.16 2.45,2.57 4.16,4.22 0.12,-1.51 0.21,-2.91 0.25,-4.22 0.04,-1.31 0.07,-2.53 0.07,-3.69l0 -14.12c0,-5.08 -0.24,-9.27 -0.74,-12.59l-1.03 -1.13 0 -0.33 12.43 -0.08 0 0.33 -7.86 1.27c-0.41,3.06 -0.62,6.95 -0.62,11.71l0 35.83 -0.33 0c-3.3,-4.23 -6.57,-8.19 -9.81,-11.87l-19.78 -22.3c-2.94,-3.17 -5.44,-5.68 -7.5,-7.56 -0.3,2.96 -0.45,5.73 -0.45,8.3l0 20.7c0,2.77 0.22,6.07 0.65,9.91l8.21 1.22 0 0.32 -19.64 0 0 -0.32 7.96 -1.15c0.25,-1.56 0.44,-3.81 0.54,-6.7 0.11,-2.9 0.17,-5.49 0.17,-7.76l0 -16.01c0,-1.9 -0.03,-3.78 -0.1,-5.65 -0.07,-1.86 -0.18,-3.7 -0.35,-5.54l-4.3 -3.21 -5.95 -1.21zm9.67 0.87l39.04 43.93 0 -3.08 -36.34 -40.85 -2.7 0zm49.34 -0.84l0 -0.33 17.28 -0.03c1.08,1.48 2.47,3.27 4.19,5.36 1.71,2.1 3.23,3.89 4.57,5.4l14.49 16.28c1.91,2.11 3.41,3.75 4.47,4.9 1.07,1.16 2.45,2.57 4.16,4.22 0.12,-1.51 0.21,-2.91 0.25,-4.22 0.04,-1.31 0.07,-2.53 0.07,-3.69l0 -14.12c0,-5.08 -0.24,-9.27 -0.74,-12.59l-7.86 -1.21 0 -0.33 19.26 0 0 0.33 -7.86 1.27c-0.41,3.06 -0.62,6.95 -0.62,11.71l0 35.83 -0.33 0c-3.3,-4.23 -6.57,-8.19 -9.81,-11.87l-19.78 -22.3c-2.94,-3.17 -5.44,-5.68 -7.5,-7.56 -0.3,2.96 -0.45,5.73 -0.45,8.3l0 20.7c0,2.77 0.22,6.07 0.65,9.91l8.21 1.22 0 0.32 -14.01 0 0 -0.32 2.33 -1.15c0.25,-1.56 0.44,-3.81 0.54,-6.7 0.11,-2.9 0.17,-5.49 0.17,-7.76l0 -16.01c0,-1.9 -0.03,-3.78 -0.1,-5.65 -0.07,-1.86 -0.18,-3.7 -0.35,-5.54l-4.3 -3.21 -6.92 -1.17zm10.64 0.84l39.04 43.93 0 -3.08 -36.34 -40.85 -2.7 0zm74.26 45.4l2.19 0 0 -20.45 -15.37 -24.95 -2.36 0 15.55 25.19 0 20.21zm-17.42 -45.14l-6.53 -1.13 0 -0.33 25.15 0 0 0.33 -9.67 1.13c1.45,3.24 3.48,7 6.1,11.29 2.64,4.29 4.98,7.78 7.05,10.46 2.26,-2.52 4.93,-6.07 8.01,-10.62 3.08,-4.55 5.37,-8.27 6.89,-11.13l-9.47 -1.13 0 -0.33 18.82 0 0 0.4 -5.56 1.06c-1.27,1.53 -2.51,3.1 -3.69,4.71 -1.18,1.62 -2.71,3.77 -4.59,6.48 -1.88,2.7 -3.35,4.87 -4.43,6.5 -1.08,1.62 -2.7,4.1 -4.86,7.43 -0.17,2.69 -0.25,5.67 -0.25,8.96 0,4.5 0.33,8.11 0.99,10.86l8.02 1.14 0 0.33 -24.49 0 0 -0.33 7.86 -1.14c0.34,-1.37 0.62,-3.25 0.82,-5.62 0.21,-2.38 0.31,-4.61 0.31,-6.7 0,-1.57 -0.07,-4.03 -0.19,-7.37 -1.26,-2.31 -2.85,-5.06 -4.78,-8.22 -1.92,-3.17 -3.92,-6.28 -5.96,-9.32 -2.05,-3.05 -3.91,-5.61 -5.56,-7.71z"/>
   <g>
    <path class="fil1" d="M112.85 77.42l-0.87 30.73c-0.41,-0.01 -0.8,0.1 -0.94,-0.26l-0.47 -0.01c-0.13,0.31 0,0.17 -0.36,0.23 -0.07,0.01 -0.49,-0.01 -0.59,-0.01l0.4 -30.74c-0.11,-0.28 -0.14,-0.17 -0.43,-0.28l-3.1 -1.31c-0.02,-0.01 -0.05,-0.03 -0.07,-0.05l-2.85 -2.83 -1.31 -3.49c-0.2,-0.64 -0.07,-1.75 -0.07,-2.49 0,-0.45 0.26,-1.99 0.53,-2.47l0.19 -0.4c0.05,-0.14 0.04,-0.15 0.08,-0.28l0.75 -1.27c0.01,-0.02 0.03,-0.05 0.05,-0.07l0.48 -0.7c0.01,-0.02 0.03,-0.05 0.05,-0.07l3.71 -2.65c0.02,-0.01 0.05,-0.03 0.08,-0.04l2.62 -0.65c0.6,-0.18 1.68,-0.14 2.28,0.08l1.35 0.33c0.19,0.06 0.13,0.03 0.3,0.06 0.04,0.01 0.07,0.01 0.1,0.02 0.58,0.12 0.86,0.38 1.38,0.65l1.48 0.9c0.53,0.35 1.07,1 1.47,1.48l0.45 0.72c0.02,0.03 0.08,0.11 0.1,0.13 0.01,0.02 0.03,0.05 0.05,0.07l0.08 0.15c0.01,0.02 0.03,0.05 0.04,0.08l1.05 2.24c0.06,0.26 0.02,0.29 0.04,0.54 0.02,0.27 0.22,0.89 0.2,1.54 -0.05,1.51 -0.02,2.07 -0.36,3.25l-1.71 3.29 -1.49 1.46c-0.02,0.01 -0.05,0.03 -0.08,0.04l-2.15 1.26c-0.54,0.23 -1.11,0.29 -1.67,0.44 -0.04,0.01 -0.14,0.05 -0.18,0.06 -0.41,0.13 -0.47,-0.03 -0.62,0.32zm-0.17 31.22l0.01 -0.71c0.26,-0.1 0.17,-0.15 0.33,-0.38l1.22 -2.12c0.05,-0.1 0.03,-0.06 0.08,-0.16 0.23,-0.44 -0.25,0.47 0.08,-0.16l0.33 -0.62c0.07,-0.13 0.01,-0.03 0.08,-0.16l0.62 -1.17c0.01,-0.02 0.03,-0.05 0.04,-0.08 0.01,-0.02 0.03,-0.05 0.04,-0.08 0.01,-0.02 0.03,-0.05 0.04,-0.08l0.24 -0.47c0.33,-0.63 0.45,-0.64 0.49,-0.7l3.53 -6.47c0.05,-0.1 0.04,-0.08 0.08,-0.16l0.29 -0.55c0.01,-0.02 0.03,-0.05 0.04,-0.08l2.01 -3.59c0.08,-0.16 -0,0 0.08,-0.16l3.44 -6.32c0.01,-0.02 0.03,-0.05 0.04,-0.08l0.08 -0.16c0.01,-0.02 0.03,-0.05 0.04,-0.08 0.02,-0.03 0.07,-0.12 0.08,-0.16 0.01,-0.02 0.03,-0.05 0.04,-0.08l0.08 -0.16c0.01,-0.02 0.03,-0.05 0.04,-0.08 0.02,-0.03 0.07,-0.12 0.08,-0.16 0.01,-0.02 0.03,-0.05 0.04,-0.08l3.2 -5.85c0,0 0.08,-0.16 0.08,-0.16 0.02,-0.04 0.04,-0.08 0.08,-0.16l0.12 -0.23c0.01,-0.02 0.03,-0.05 0.04,-0.08l0.29 -0.55c0.01,-0.02 0.03,-0.05 0.04,-0.08 0.48,-0.93 0.53,-0.78 0.78,-1.24l1.35 -2.58c0.01,-0.02 0.03,-0.05 0.04,-0.08 0.02,-0.03 0.07,-0.12 0.08,-0.16l1.3 -2.27c0.01,-0.02 0.04,-0.05 0.05,-0.07l0.58 -1.09c0.01,-0.02 0.03,-0.05 0.04,-0.08l1.23 -2.34c0.01,-0.02 0.03,-0.06 0.04,-0.08 0.01,-0.02 0.03,-0.06 0.04,-0.08 0.13,-0.25 0.11,-0.36 0.37,-0.46l0 -0.24c-0.42,-0.18 -0.3,-0.55 -0.76,-1.59l-1.31 -3.72c-0.01,-0.03 -0.02,-0.06 -0.03,-0.09l-1.21 -3.36c-0.05,-0.15 -0.05,-0.22 -0.1,-0.37l-0.48 -1.28c-0.01,-0.03 -0.02,-0.06 -0.03,-0.09 -0.01,-0.03 -0.02,-0.06 -0.03,-0.09 -0.01,-0.03 -0.02,-0.06 -0.03,-0.09 -0.01,-0.03 -0.02,-0.06 -0.03,-0.09l-0.66 -2.14c-0.06,-0.21 -0.03,-0.17 -0.1,-0.37 -0.01,-0.03 -0.02,-0.06 -0.03,-0.08 -0.01,-0.03 -0.02,-0.06 -0.04,-0.08l-0.55 -1.56c-0.01,-0.03 -0.02,-0.06 -0.03,-0.09l-0.09 -0.26c-0.01,-0.03 -0.02,-0.06 -0.03,-0.09l-0.85 -3.01c-0.01,-0.03 -0.02,-0.06 -0.03,-0.09 -0.01,-0.03 -0.02,-0.06 -0.03,-0.09l-0.32 -1.32c-0.01,-0.03 -0.02,-0.06 -0.03,-0.09l-0.31 -0.98c-0.01,-0.03 -0.01,-0.07 -0.02,-0.1 -0.02,-0.13 -0.01,-0.17 -0.04,-0.31l-0.17 -0.54c-0.04,-0.14 -0.08,-0.27 -0.11,-0.36 -0.01,-0.03 -0.02,-0.06 -0.03,-0.09 -0.01,-0.03 -0.02,-0.06 -0.03,-0.09l-0.21 -0.95c-0.01,-0.03 -0.02,-0.06 -0.03,-0.09 -0.01,-0.03 -0.01,-0.06 -0.02,-0.09l-0.41 -1.81c-0.01,-0.03 -0.01,-0.06 -0.02,-0.09l-0.17 -0.77c-0.01,-0.03 -0.02,-0.06 -0.03,-0.09 -0.01,-0.03 -0.02,-0.06 -0.02,-0.09l-0.59 -3.14c-0.01,-0.03 -0.02,-0.06 -0.03,-0.09 -0.11,-0.45 -0,-0.82 -0.14,-1.25 -0.01,-0.03 -0.03,-0.06 -0.03,-0.08 -0.13,-0.43 -0.01,-0.82 -0.14,-1.26 -0.22,-0.7 0.01,-1.49 -0.19,-2.13l-0.13 -1.39c0.03,-1.04 -0.05,-2.17 0.06,-3.2l0.27 -1.41c-1.65,-0.03 -6.39,0.05 -7.68,-0.16 -0.78,-0.13 0.07,-0.11 -0.72,-0.24 -0.67,-0.11 -2.25,-0.18 -2.87,0.02l-17.82 -0.21 0.22 1.29c0.07,0.61 0.22,0.64 0.2,1.43 -0.02,0.69 0.03,2.64 -0.09,3.17 -0.16,0.69 -0.04,-0.17 -0.2,0.52 -0.13,0.56 0.01,1.36 -0.18,1.87l-0.15 1.05c-0.13,0.84 -0.06,-0.06 -0.22,0.62l-0.72 3.6c-0.01,0.03 -0.02,0.06 -0.03,0.09l-0.23 0.85c-0.01,0.03 -0.02,0.06 -0.03,0.09 -0.08,0.29 -0.06,0.4 -0.16,0.68l-0.97 3.58c-0.01,0.03 -0.02,0.06 -0.03,0.09 -0.01,0.03 -0.02,0.06 -0.03,0.09l-0.76 2.59c-0.01,0.03 -0.02,0.06 -0.03,0.09l-0.73 2.26c-0.01,0.03 -0.02,0.06 -0.03,0.09l-0.54 1.73c-0.01,0.03 -0.02,0.06 -0.03,0.09l-0.5 1.41c-0.05,0.13 -0.07,0.22 -0.12,0.36l-1.35 3.78c-0.01,0.03 -0.02,0.06 -0.03,0.09l-0.9 2.56c-0.01,0.03 -0.02,0.06 -0.03,0.09l-0.71 1.8c-0.1,0.21 -0.01,-0 -0.11,0.25 -0.05,0.13 -0.04,0.15 -0.09,0.27l-0.13 0.35c-0.01,0.03 -0.02,0.06 -0.03,0.09l-0.47 1.32c-0.01,0.02 -0.03,0.05 -0.04,0.08l-0.32 0.75c-0.01,0.03 -0.02,0.06 -0.03,0.09 -0.12,0.34 -0.21,0.81 -0.44,1.12 -0.18,0.24 0.07,0.11 -0.25,0.23l-0.01 0.47c0.32,0.14 0.07,-0.02 0.23,0.24l0.15 0.32c0.04,0.1 0.1,0.23 0.15,0.32l1.66 3.27c0.01,0.02 0.03,0.06 0.04,0.08 0,0 0.08,0.16 0.08,0.16 0.01,0.02 0.03,0.06 0.04,0.08l0.23 0.48c0.01,0.02 0.03,0.06 0.04,0.08l1.41 2.71c0.16,0.34 -0.14,-0.3 0.08,0.16l0.64 1.35c0.08,0.16 -0,-0 0.08,0.16l0.57 0.96c0.01,0.02 0.03,0.05 0.04,0.07 0.01,0.02 0.03,0.05 0.04,0.08l1.2 2.55c0,0 0.08,0.16 0.08,0.16l1.07 1.99c0.01,0.02 0.02,0.06 0.04,0.08 0.01,0.02 0.03,0.06 0.04,0.08l0.68 1.43c0.1,0.21 -0.06,-0.12 0.08,0.16l1.44 2.79c0.01,0.02 0.02,0.06 0.04,0.08 0.01,0.02 0.03,0.06 0.04,0.08l0.57 1.2c0.01,0.02 0.03,0.06 0.04,0.08l0.08 0.16c0.01,0.02 0.03,0.06 0.04,0.08 0.02,0.03 0.06,0.13 0.08,0.16 0.01,0.02 0.03,0.06 0.04,0.08l0.08 0.16c0.01,0.02 0.03,0.06 0.04,0.08 0.02,0.03 0.06,0.13 0.08,0.16l2.08 4.14c0.01,0.02 0.03,0.06 0.04,0.08l0.15 0.32c0.01,0.02 0.03,0.06 0.04,0.08l0.19 0.4c0.01,0.02 0.03,0.06 0.04,0.08l1.44 2.79c0.01,0.02 0.03,0.06 0.04,0.08 0.02,0.03 0.06,0.13 0.08,0.16l0.98 2.07c0.01,0.02 0.02,0.06 0.04,0.08l0.5 0.79c0.01,0.02 0.03,0.05 0.04,0.08l0.64 1.36c0.05,0.11 0.02,0.05 0.08,0.16 0.01,0.02 0.03,0.06 0.04,0.08l0.19 0.4c0.01,0.02 0.03,0.06 0.04,0.08l0.23 0.48c0,0 0.08,0.16 0.08,0.16 0.04,0.09 0.11,0.23 0.15,0.32l1.48 2.87c0.01,0.02 0.03,0.06 0.04,0.08l1.21 2.55c0.08,0.12 0.04,0.05 0.15,0.21 0.23,0.32 0.13,0.46 0.46,0.6l-0.33 0.62c-0.03,0.01 -0.13,0.06 -0.16,0.07 -0.38,0.19 -0.61,0.47 -0.8,0.85l-0.5 0.93c-0.01,0.02 -0.03,0.05 -0.04,0.08 -0.05,0.12 -0.02,-0.08 -0.1,0.26 -0.23,1.06 -0.05,2.03 0.5,2.85l0.58 0.83c0.5,0.5 1.23,0.74 1.87,0.98 0.37,0.14 0.97,0.17 1.35,0.06 0.03,-0.01 0.06,-0.02 0.09,-0.03 0.03,-0.01 0.06,-0.02 0.08,-0.03 0.03,-0.01 0.06,-0.02 0.09,-0.03l2.42 -1.58c0.02,-0.03 0.07,-0.12 0.09,-0.15l0.17 -0.42c0.22,-0.62 0.29,-0.89 0.3,-1.75 0.01,-0.37 0.02,-0.43 -0.07,-0.75l-0.06 -0.17c-0.01,-0.03 -0.02,-0.06 -0.03,-0.09 -0.05,-0.16 -0.05,-0.22 -0.1,-0.37l-0.41 -0.65c-0.16,-0.29 -0.18,-0.41 -0.54,-0.64l-0.62 -0.33z"/>
    <polygon class="fil1" points="128.15,0.62 97.88,0 97.66,10.88 127.92,11.5 "/>
    <polygon class="fil1" points="130.47,14.15 95,13.42 94.83,21.7 130.3,22.43 "/>
   </g>
  </g>
 </g>
</svg>
