<?xml version="1.0" encoding="UTF-8"?>
<!DOCTYPE svg PUBLIC "-//W3C//DTD SVG 1.1//EN" "http://www.w3.org/Graphics/SVG/1.1/DTD/svg11.dtd">
<!-- Creator: CorelDRAW 2021 (64-Bit) -->
<svg xmlns="http://www.w3.org/2000/svg" xml:space="preserve" width="0.473213in" height="0.384709in" version="1.1" style="shape-rendering:geometricPrecision; text-rendering:geometricPrecision; image-rendering:optimizeQuality; fill-rule:evenodd; clip-rule:evenodd"
viewBox="0 0 0.41 0.33"
 xmlns:xlink="http://www.w3.org/1999/xlink"
 xmlns:xodm="http://www.corel.com/coreldraw/odm/2003">
 <defs>
  <style type="text/css">
   <![CDATA[
    .fil0 {fill:#1DA1F2;fill-rule:nonzero}
   ]]>
  </style>
 </defs>
 <g id="Layer_x0020_1">
  <metadata id="CorelCorpID_0Corel-Layer"/>
  <g>
   <path class="fil0" d="M0.13 0.33c0.15,0 0.24,-0.13 0.24,-0.24 0,-0 -0,-0.01 -0,-0.01 0.02,-0.01 0.03,-0.03 0.04,-0.04 -0.01,0.01 -0.03,0.01 -0.05,0.01 0.02,-0.01 0.03,-0.03 0.04,-0.05 -0.02,0.01 -0.03,0.02 -0.05,0.02 -0.02,-0.02 -0.04,-0.03 -0.06,-0.03 -0.05,0 -0.08,0.04 -0.08,0.08 0,0.01 0,0.01 0,0.02 -0.07,-0 -0.13,-0.04 -0.17,-0.09 -0.01,0.01 -0.01,0.03 -0.01,0.04 0,0 0,0 0,0 0,0.03 0.01,0.05 0.04,0.07 -0.01,-0 -0.03,-0 -0.04,-0.01 -0,0 -0,0 -0,0 0,0.04 0.03,0.07 0.07,0.08 -0.01,0 -0.01,0 -0.02,0 -0,0 -0,0 -0,0 -0.01,0 -0.01,-0 -0.02,-0 0.01,0.03 0.04,0.06 0.08,0.06 -0.03,0.02 -0.06,0.04 -0.1,0.04 -0,0 -0,0 -0,0 -0.01,0 -0.01,-0 -0.02,-0 0.04,0.02 0.08,0.04 0.13,0.04l0 0zm0 0l0 0 0 0z"/>
  </g>
 </g>
</svg>
